<?xml version="1.0" encoding="utf-8"?>
<!-- Generator: Adobe Illustrator 18.1.0, SVG Export Plug-In . SVG Version: 6.00 Build 0)  -->
<svg version="1.1" xmlns="http://www.w3.org/2000/svg" xmlns:xlink="http://www.w3.org/1999/xlink" x="0px" y="0px"
	 viewBox="0 0 266.7 57.6" enable-background="new 0 0 266.7 57.6" xml:space="preserve">
<g id="Layer_3">
</g>
<g id="Layer_1">
</g>
<g id="Layer_2">
</g>
<g id="Icons">
	<g>
		<path fill="#EDE9E6" d="M65.2,48.2c-2.1,0-4-0.4-5.7-1.1c-1.7-0.7-3.2-1.7-4.5-3c-1.2-1.3-2.2-2.8-2.9-4.5S51,36,51,34
			s0.4-3.9,1.1-5.6c0.7-1.7,1.7-3.2,2.9-4.5c1.2-1.3,2.7-2.3,4.5-3s3.6-1.1,5.7-1.1c2.1,0,4,0.4,5.7,1.1c1.7,0.7,3.2,1.7,4.5,3
			c1.2,1.3,2.2,2.8,2.9,4.5c0.7,1.7,1.1,3.6,1.1,5.6s-0.4,3.9-1.1,5.6c-0.7,1.7-1.7,3.2-2.9,4.5c-1.2,1.3-2.7,2.3-4.5,3
			C69.1,47.8,67.2,48.2,65.2,48.2z M65.2,44.7c1.6,0,3-0.3,4.2-0.9c1.2-0.6,2.3-1.3,3.2-2.3s1.6-2.1,2.1-3.4
			c0.5-1.3,0.7-2.7,0.7-4.2c0-1.5-0.2-2.9-0.7-4.2c-0.5-1.3-1.2-2.5-2.1-3.4c-0.9-1-2-1.7-3.2-2.3c-1.2-0.6-2.7-0.9-4.2-0.9
			c-1.6,0-3,0.3-4.2,0.9c-1.2,0.6-2.3,1.3-3.2,2.3c-0.9,1-1.6,2.1-2.1,3.4s-0.7,2.7-0.7,4.2c0,1.5,0.2,2.9,0.7,4.2s1.2,2.5,2.1,3.4
			c0.9,1,2,1.7,3.2,2.3C62.2,44.5,63.6,44.7,65.2,44.7z"/>
		<path fill="#EDE9E6" d="M85,32.4h-3.9v-3H85v-4.1c0-2.4,0.5-4.2,1.4-5.4s2.5-1.8,4.8-1.8c0.4,0,0.8,0,1.2,0s0.9,0.1,1.4,0.2
			l-0.4,3.1c-0.3-0.1-0.7-0.2-1-0.3c-0.3-0.1-0.6-0.1-1-0.1c-0.6,0-1.1,0.1-1.5,0.3s-0.7,0.5-0.9,0.8c-0.2,0.4-0.4,0.8-0.4,1.3
			c-0.1,0.5-0.1,1.1-0.1,1.7v4.2h4.1v3h-4.1v15.1H85V32.4z"/>
		<path fill="#EDE9E6" d="M97.1,32.4h-3.9v-3h3.9v-4.1c0-2.4,0.5-4.2,1.4-5.4s2.5-1.8,4.8-1.8c0.4,0,0.8,0,1.2,0s0.9,0.1,1.4,0.2
			l-0.4,3.1c-0.3-0.1-0.7-0.2-1-0.3c-0.3-0.1-0.6-0.1-1-0.1c-0.6,0-1.1,0.1-1.5,0.3s-0.7,0.5-0.9,0.8c-0.2,0.4-0.4,0.8-0.4,1.3
			c-0.1,0.5-0.1,1.1-0.1,1.7v4.2h4.1v3h-4.1v15.1h-3.4V32.4z"/>
		<path fill="#EDE9E6" d="M107.9,22.9c0-0.7,0.2-1.3,0.7-1.8c0.5-0.5,1.1-0.7,1.8-0.7s1.3,0.2,1.8,0.7c0.5,0.5,0.7,1.1,0.7,1.8
			s-0.2,1.3-0.7,1.8s-1.1,0.7-1.8,0.7s-1.3-0.2-1.8-0.7S107.9,23.6,107.9,22.9z M108.7,29.4h3.4v18.1h-3.4V29.4z"/>
		<path fill="#EDE9E6" d="M130.6,34.2c-0.6-0.7-1.3-1.2-2-1.5c-0.7-0.3-1.5-0.5-2.5-0.5c-0.9,0-1.8,0.2-2.5,0.5
			c-0.7,0.3-1.3,0.8-1.8,1.4c-0.5,0.6-0.8,1.3-1.1,2.1c-0.2,0.8-0.4,1.6-0.4,2.4c0,0.8,0.1,1.6,0.4,2.4c0.3,0.8,0.7,1.4,1.2,2
			c0.5,0.6,1.1,1,1.8,1.3c0.7,0.3,1.5,0.5,2.4,0.5c1,0,1.8-0.2,2.5-0.5s1.3-0.8,1.9-1.5l2.4,2.4c-0.9,1-1.9,1.7-3.1,2.1
			s-2.4,0.7-3.8,0.7c-1.4,0-2.7-0.2-3.8-0.7s-2.2-1.1-3-1.9c-0.8-0.8-1.5-1.8-2-3s-0.7-2.4-0.7-3.8c0-1.4,0.2-2.7,0.7-3.9
			s1.1-2.2,1.9-3c0.8-0.8,1.8-1.5,3-2c1.2-0.5,2.5-0.7,3.9-0.7c1.3,0,2.6,0.2,3.8,0.7c1.2,0.5,2.3,1.2,3.2,2.2L130.6,34.2z"/>
		<path fill="#EDE9E6" d="M138.7,39.7c0,0.8,0.2,1.5,0.5,2.2c0.3,0.7,0.8,1.2,1.4,1.7s1.2,0.8,2,1.1c0.7,0.3,1.5,0.4,2.3,0.4
			c1.1,0,2-0.2,2.8-0.7c0.8-0.5,1.5-1.2,2.2-2l2.6,2c-1.9,2.5-4.6,3.7-8,3.7c-1.4,0-2.7-0.2-3.9-0.7s-2.1-1.2-2.9-2
			c-0.8-0.9-1.4-1.9-1.9-3c-0.4-1.2-0.7-2.4-0.7-3.8s0.2-2.6,0.7-3.8s1.1-2.2,2-3c0.8-0.9,1.8-1.5,3-2s2.4-0.7,3.7-0.7
			c1.6,0,3,0.3,4.1,0.8c1.1,0.6,2,1.3,2.7,2.2c0.7,0.9,1.2,1.9,1.5,3.1c0.3,1.1,0.5,2.3,0.5,3.5v1.2H138.7z M149.5,36.9
			c0-0.8-0.1-1.5-0.4-2.1s-0.5-1.2-1-1.7s-1-0.8-1.6-1.1c-0.7-0.3-1.4-0.4-2.3-0.4c-0.8,0-1.6,0.2-2.3,0.5c-0.7,0.3-1.3,0.7-1.8,1.2
			c-0.5,0.5-0.9,1.1-1.1,1.7c-0.3,0.6-0.4,1.2-0.4,1.9H149.5z"/>
		<path fill="#EDE9E6" d="M169.7,41.8c0.7,1,1.5,1.7,2.5,2.2c1,0.5,2.1,0.7,3.2,0.7c0.6,0,1.2-0.1,1.9-0.3c0.6-0.2,1.2-0.5,1.7-0.9
			c0.5-0.4,0.9-0.9,1.3-1.4c0.3-0.6,0.5-1.2,0.5-2c0-1-0.3-1.8-1-2.4s-1.5-1-2.5-1.4c-1-0.4-2.1-0.7-3.2-1.1
			c-1.2-0.3-2.2-0.8-3.2-1.4c-1-0.6-1.8-1.4-2.5-2.5c-0.7-1-1-2.4-1-4.2c0-0.8,0.2-1.6,0.5-2.5c0.3-0.9,0.9-1.7,1.6-2.4
			c0.7-0.7,1.7-1.4,2.8-1.9c1.2-0.5,2.6-0.7,4.2-0.7c1.5,0,2.9,0.2,4.2,0.6c1.4,0.4,2.5,1.2,3.6,2.5l-3,2.7c-0.5-0.7-1.1-1.3-2-1.7
			c-0.8-0.4-1.8-0.7-2.9-0.7c-1,0-1.9,0.1-2.5,0.4c-0.7,0.3-1.2,0.6-1.6,1s-0.7,0.9-0.9,1.4c-0.2,0.5-0.2,0.9-0.2,1.3
			c0,1.1,0.3,2,1,2.6s1.5,1.1,2.5,1.5c1,0.4,2.1,0.7,3.2,1c1.2,0.3,2.2,0.7,3.2,1.3c1,0.5,1.8,1.3,2.5,2.2c0.7,0.9,1,2.2,1,3.8
			c0,1.3-0.2,2.5-0.7,3.5s-1.2,1.9-2,2.6c-0.8,0.7-1.8,1.3-3,1.6c-1.1,0.4-2.4,0.6-3.7,0.6c-1.7,0-3.4-0.3-4.9-0.9s-2.8-1.6-3.7-2.8
			L169.7,41.8z"/>
		<path fill="#EDE9E6" d="M189.3,18.6h3.4v13.6h0.1c0.4-1,1.2-1.8,2.3-2.4c1.1-0.6,2.3-0.9,3.7-0.9c0.9,0,1.7,0.1,2.5,0.4
			c0.8,0.3,1.5,0.7,2.1,1.2c0.6,0.6,1.1,1.3,1.4,2.2s0.5,1.9,0.5,3.1v11.7h-3.4V36.8c0-0.8-0.1-1.6-0.3-2.2
			c-0.2-0.6-0.5-1.1-0.9-1.5c-0.4-0.4-0.8-0.6-1.3-0.8c-0.5-0.2-1-0.2-1.5-0.2c-0.7,0-1.4,0.1-2,0.3c-0.6,0.2-1.1,0.6-1.6,1.1
			c-0.5,0.5-0.8,1.1-1.1,1.9c-0.3,0.8-0.4,1.7-0.4,2.7v9.3h-3.4V18.6z"/>
		<path fill="#EDE9E6" d="M210.5,29.4h3.4v2.8h0.1c0.2-0.5,0.5-0.9,0.9-1.3c0.4-0.4,0.8-0.7,1.3-1s1-0.5,1.5-0.7
			c0.6-0.2,1.1-0.2,1.7-0.2s1.1,0.1,1.5,0.2l-0.2,3.7c-0.3-0.1-0.6-0.1-0.8-0.2c-0.3-0.1-0.6-0.1-0.8-0.1c-1.7,0-3,0.5-3.9,1.4
			c-0.9,0.9-1.3,2.4-1.3,4.4v9.1h-3.4V29.4z"/>
		<path fill="#EDE9E6" d="M240.7,47.5h-3.4v-2.8h-0.1c-0.4,1-1.2,1.8-2.3,2.4c-1.1,0.6-2.3,0.9-3.7,0.9c-0.9,0-1.7-0.1-2.5-0.4
			c-0.8-0.3-1.5-0.7-2.1-1.2c-0.6-0.6-1.1-1.3-1.4-2.2c-0.4-0.9-0.5-1.9-0.5-3.1V29.4h3.4v10.7c0,0.8,0.1,1.6,0.3,2.2
			c0.2,0.6,0.5,1.1,0.9,1.5c0.4,0.4,0.8,0.6,1.3,0.8c0.5,0.2,1,0.2,1.5,0.2c0.7,0,1.4-0.1,2-0.3s1.1-0.6,1.6-1.1s0.8-1.1,1.1-1.9
			c0.3-0.8,0.4-1.7,0.4-2.7v-9.3h3.4V47.5z"/>
		<path fill="#EDE9E6" d="M245.9,18.6h3.4V32h0.1c0.6-0.9,1.5-1.7,2.6-2.2s2.4-0.8,3.7-0.8c1.4,0,2.7,0.2,3.8,0.7
			c1.1,0.5,2.1,1.2,2.9,2c0.8,0.9,1.4,1.9,1.9,3s0.7,2.4,0.7,3.8s-0.2,2.6-0.7,3.7c-0.4,1.1-1.1,2.2-1.9,3c-0.8,0.9-1.8,1.5-2.9,2
			c-1.1,0.5-2.4,0.7-3.8,0.7c-1.2,0-2.4-0.3-3.6-0.8c-1.2-0.5-2.1-1.3-2.7-2.3h-0.1v2.6h-3.4V18.6z M255.3,44.7
			c0.9,0,1.7-0.2,2.5-0.5c0.7-0.3,1.4-0.8,1.9-1.3c0.5-0.5,0.9-1.2,1.2-2c0.3-0.8,0.4-1.6,0.4-2.5s-0.1-1.8-0.4-2.5
			c-0.3-0.8-0.7-1.4-1.2-2c-0.5-0.5-1.1-1-1.9-1.3c-0.7-0.3-1.6-0.5-2.5-0.5s-1.7,0.2-2.5,0.5c-0.7,0.3-1.4,0.8-1.9,1.3
			c-0.5,0.5-0.9,1.2-1.2,2c-0.3,0.8-0.4,1.6-0.4,2.5s0.1,1.8,0.4,2.5c0.3,0.8,0.7,1.4,1.2,2c0.5,0.5,1.1,1,1.9,1.3
			C253.6,44.6,254.4,44.7,255.3,44.7z"/>
	</g>
	<g>
		<polygon fill="#EDE9E6" points="26.9,56.1 13.9,56.1 11.6,42.2 29.2,42.2 		"/>
		<path fill="#EDE9E6" d="M30.9,40c0,0.6-0.5,1.1-1.1,1.1H11.1c-0.6,0-1.1-0.5-1.1-1.1l0,0c0-0.6,0.5-1.1,1.1-1.1h18.7
			C30.4,38.9,30.9,39.4,30.9,40L30.9,40z"/>
		<path fill="#EDE9E6" d="M27.7,7.1c-1.8-3.3,0.6-5.8,3.7-7.1C32.3,3.6,31.3,5.9,27.7,7.1z"/>
		<path fill="#EDE9E6" d="M27.4,7.8C27.4,7.8,27.4,7.8,27.4,7.8c-0.7,0-1.2,0.5-1.3,1.2c-0.1,4.5-2.1,5.8-4.4,7.2
			c-0.6,0.3-1.1,0.7-1.7,1.1c-1.6,1.2-2.6,2.7-3.2,3.9c-0.2-0.2-0.4-0.4-0.6-0.7L15.8,20c-3.5-4-4.6-8.1-4.6-8.2
			c-0.2-0.7-0.9-1.1-1.5-0.9c-0.7,0.2-1.1,0.8-0.9,1.5c0,0.2,1.3,4.7,5.1,9.2l0.4,0.5c3.3,3.8,4.8,5.5,4.8,8.1l-0.4,8.7
			c0,0.7,1,1.2,1.7,1.2c0.7,0,1.6-0.6,1.6-1.2l-0.3-8.7c0-2.6-1.1-4.5-3-6.9c0.3-0.9,1.1-2.8,2.9-4c0.5-0.3,1-0.7,1.5-1
			c2.5-1.5,5.5-3.3,5.6-9.3C28.7,8.4,28.1,7.9,27.4,7.8z"/>
		<path fill="#EDE9E6" d="M29.3,9.5c1.6-4.5,6.4-3.8,8.5-2.4C34.9,10.8,32.7,9.6,29.3,9.5z"/>
		<path fill="#EDE9E6" d="M26.4,7.4c-3.7,0.6-5.8-2.5-5.2-6.6C24.1,1.1,26.4,3.6,26.4,7.4z"/>
		<path fill="#EDE9E6" d="M10.6,29.6c-2.6-2.7-0.5-6.8,2.6-7.7C15.9,26.2,11.1,27.3,10.6,29.6z"/>
		<path fill="#EDE9E6" d="M9,10.4C5.3,11,3.2,7.9,3.8,3.8C6.7,4.1,9,6.6,9,10.4z"/>
		<path fill="#EDE9E6" d="M10.2,10.2c4.8-0.3,2.6-5.8,3-7.4C9.9,3.8,9.4,7,10.2,10.2z"/>
		<path fill="#EDE9E6" d="M12.8,14.1c3.1-1.2,4.2-3.8,3.9-7.3C13.9,7.5,11.6,9.9,12.8,14.1z"/>
		<path fill="#EDE9E6" d="M23.6,14.1c2.5-3.2,0.8-6.5-3.3-7.7C19,9.3,20,12.5,23.6,14.1z"/>
		<path fill="#EDE9E6" d="M28.3,13.9c2.8,2.6,6.2,1.2,8-2.5C33.8,9.9,30.5,10.7,28.3,13.9z"/>
		<path fill="#EDE9E6" d="M27.1,16c0.2,3,3.4,4.3,6.9,3.4C33.2,17.1,30.5,15.5,27.1,16z"/>
		<path fill="#EDE9E6" d="M0,12.1c1.6,3.4,5.3,3.4,8.4,0.6C6.5,10.4,3.1,9.9,0,12.1z"/>
		<path fill="#EDE9E6" d="M17.4,18.9c1.2-3.2,3.7-3.6,1.4-7.8C15.1,12.6,14.8,17.1,17.4,18.9z"/>
		<path fill="#EDE9E6" d="M1.8,16.8c1.6,3.4,5.3,3.4,8.4,0.6C8.3,15.1,4.9,14.6,1.8,16.8z"/>
		<path fill="#EDE9E6" d="M5.1,22.8c3.2,0.8,5.9,0.6,7-2.6C10,18.9,6.3,19.2,5.1,22.8z"/>
		<path fill="#EDE9E6" d="M22.2,25.7c2.5-1.3,2.4-4.1,0.2-6.3C20.8,20.9,20.5,23.4,22.2,25.7z"/>
		<path fill="#EDE9E6" d="M29.7,24.4c-0.3-3.4-1.5-6.1-5.1-6C24.1,20.9,25.7,24.4,29.7,24.4z"/>
	</g>
</g>
<g id="Layer_5">
</g>
<g id="Layer_6">
</g>
</svg>
