<?xml version="1.0" encoding="utf-8"?>
<!-- Generator: Adobe Illustrator 18.1.0, SVG Export Plug-In . SVG Version: 6.00 Build 0)  -->
<svg version="1.1" xmlns="http://www.w3.org/2000/svg" xmlns:xlink="http://www.w3.org/1999/xlink" x="0px" y="0px"
	 viewBox="0 0 43.5 42.8" enable-background="new 0 0 43.5 42.8" xml:space="preserve">
<g id="Layer_3">
</g>
<g id="Layer_1">
</g>
<g id="Layer_2">
</g>
<g id="Icons">
	<g>
		<path fill="#FFFFFF" d="M29.6,22c-0.2,4.2-3.3,7.4-7.5,7.5c-4.2,0.2-7.4-3.6-7.5-7.5c-0.2-4.2,3.6-7.4,7.5-7.5
			C26.3,14.4,29.4,18.1,29.6,22c0.1,1.7,2.7,1.7,2.6,0c-0.2-5.7-4.5-10-10.2-10.2c-5.7-0.2-10,4.8-10.2,10.2
			c-0.2,5.7,4.8,10,10.2,10.2c5.7,0.2,10-4.8,10.2-10.2C32.3,20.3,29.7,20.3,29.6,22z"/>
		<path fill="#FFFFFF" d="M23.4,8.1c0-1.3,0-2.6,0-4c0-1.7-2.6-1.7-2.6,0c0,1.3,0,2.6,0,4C20.7,9.8,23.4,9.8,23.4,8.1L23.4,8.1z"/>
		<path fill="#FFFFFF" d="M23.4,40c0-1.3,0-2.6,0-4c0-1.7-2.6-1.7-2.6,0c0,1.3,0,2.6,0,4C20.7,41.7,23.4,41.7,23.4,40L23.4,40z"/>
		<path fill="#FFFFFF" d="M8.1,20.7c-1.3,0-2.6,0-4,0c-1.7,0-1.7,2.6,0,2.6c1.3,0,2.6,0,4,0C9.8,23.4,9.8,20.7,8.1,20.7L8.1,20.7z"
			/>
		<path fill="#FFFFFF" d="M40,20.7c-1.3,0-2.6,0-4,0c-1.7,0-1.7,2.6,0,2.6c1.3,0,2.6,0,4,0C41.7,23.4,41.7,20.7,40,20.7L40,20.7z"/>
		<path fill="#FFFFFF" d="M33,13c0.9-0.9,1.9-1.9,2.8-2.8C37,9,35.1,7.1,33.9,8.3c-0.9,0.9-1.9,1.9-2.8,2.8
			C29.9,12.4,31.7,14.2,33,13L33,13z"/>
		<path fill="#FFFFFF" d="M10.2,35.8c0.9-0.9,1.9-1.9,2.8-2.8c1.2-1.2-0.7-3.1-1.9-1.9C10.2,32,9.3,33,8.3,33.9
			C7.1,35.1,9,37,10.2,35.8L10.2,35.8z"/>
		<path fill="#FFFFFF" d="M13,11.2c-0.9-0.9-1.9-1.9-2.8-2.8C9,7.1,7.1,9,8.3,10.2c0.9,0.9,1.9,1.9,2.8,2.8
			C12.4,14.2,14.2,12.4,13,11.2L13,11.2z"/>
		<path fill="#FFFFFF" d="M35.8,33.9C34.8,33,33.9,32,33,31.1c-1.2-1.2-3.1,0.7-1.9,1.9c0.9,0.9,1.9,1.9,2.8,2.8
			C35.1,37,37,35.1,35.8,33.9L35.8,33.9z"/>
	</g>
</g>
<g id="Layer_5">
</g>
<g id="Layer_6">
</g>
</svg>
