<?xml version="1.0" encoding="utf-8"?>
<!-- Generator: Adobe Illustrator 18.1.0, SVG Export Plug-In . SVG Version: 6.00 Build 0)  -->
<svg version="1.1" xmlns="http://www.w3.org/2000/svg" xmlns:xlink="http://www.w3.org/1999/xlink" x="0px" y="0px"
	 viewBox="0 0 28.5 36.5" enable-background="new 0 0 28.5 36.5" xml:space="preserve">
<g id="Layer_3">
</g>
<g id="Layer_1">
</g>
<g id="Layer_2">
</g>
<g id="Icons">
	<g>
		<g>
			<path fill="#FFFFFF" d="M6.8,26.4c-0.1,0-0.2,0-0.3,0c0,0,0,0,0,0c0,0,0,0,0,0l0,0l0,0c0,0,0,0,0,0l0,0c-3.1-0.1-5.3-2.7-5.1-5.9
				c0.1-2.5,2.3-5.1,3.8-7.1c0.2-0.2,0.4-0.5,0.5-0.7c0.1-0.2,0.3-0.4,0.5-0.5C6.4,12,6.7,12,7,12c0.3,0,0.6,0.1,0.8,0.3
				c0.2,0.2,0.4,0.4,0.4,0.6c0.1,0.2,0.3,0.5,0.5,0.7c1.4,2.1,3.4,4.9,3.3,7.3C11.9,24.1,9.7,26.4,6.8,26.4z M6.5,23.6
				c1.8,0.1,2.6-1.4,2.7-2.8c0-1.3-1.3-3.5-2.4-5c-1.2,1.5-2.7,3.5-2.7,4.8C4,22,4.8,23.5,6.5,23.6z"/>
		</g>
		<g>
			<path fill="#FFFFFF" d="M20,35.1c-0.1,0-0.2,0-0.3,0c0,0,0,0,0,0c-3.8-0.1-6.5-3.3-6.3-7.3c0.1-3.1,2.9-6.5,4.9-8.9
				c0.3-0.3,0.5-0.6,0.7-0.9c0.1-0.2,0.3-0.4,0.5-0.6c0.3-0.2,0.6-0.2,0.8-0.2c0.3,0,0.6,0.1,0.8,0.3c0.2,0.2,0.4,0.4,0.5,0.6
				c0.2,0.3,0.4,0.6,0.7,1c1.8,2.6,4.3,6.2,4.2,9.3C26.3,32.2,23.6,35,20,35.1z M19.7,32.3L19.7,32.3c2.2,0.1,3.8-1.6,3.9-4.1
				c0.1-2-2-5.2-3.5-7.2c-1.6,1.9-3.9,4.9-4,6.9C16.1,30.4,17.5,32.2,19.7,32.3z"/>
		</g>
		<g>
			<path fill="#FFFFFF" d="M16.2,14.2c-0.1,0-0.2,0-0.3,0c0,0,0,0,0,0c0,0,0,0,0,0c-2.6-0.1-4.4-2.3-4.3-5c0.1-2.1,1.8-4.2,3.1-5.8
				C14.8,3.2,15,3,15.1,2.9c0.1-0.2,0.3-0.4,0.5-0.5c0.3-0.2,0.5-0.2,0.8-0.2c0.3,0,0.6,0.1,0.8,0.3c0.2,0.2,0.3,0.3,0.4,0.6
				c0.1,0.2,0.2,0.4,0.4,0.6c1.2,1.7,2.7,4,2.7,6C20.6,12.2,18.7,14.2,16.2,14.2z M16.1,11.4c1.2,0,1.8-1,1.8-2
				c0-0.9-0.9-2.3-1.6-3.5c-0.8,1.1-1.8,2.5-1.9,3.3C14.4,10.3,14.9,11.3,16.1,11.4z"/>
		</g>
	</g>
</g>
<g id="Layer_5">
</g>
<g id="Layer_6">
</g>
</svg>
